# xmcd CD database file
#
# Track frame offsets:
#	150
#	12118
#	21400
#	29197
#	47149
#	55247
#	67012
#	78770
#	92136
#	105241
#	118809
#	132511
#	147057
#	160700
#	171737
#	186462
#	195325
#	211016
#
# Disc length: 3004 seconds
#
# Revision: 1
# Processed by: cddbd v1.5.1PL0 Copyright (c) Steve Scherf et al.
# Submitted via: CDex 1.51
#
DISCID=fe0bba12
DTITLE=Mildred Bailey - Great Divas
DYEAR=1900
DGENRE=Blues
TTITLE0=Evaline
TTITLE1=I Never Knew
TTITLE2=Please Don't Talk About Me When I'm Gone
TTITLE3=I Didn't Know About You
TTITLE4=I'll Get By
TTITLE5=St. Louis Blues
TTITLE6=Lover Come Back To Me
TTITLE7=I Got My Love To Keep Me Warm
TTITLE8=Rock It For Me
TTITLE9=Barrelhouse Music
TTITLE10=Arkansas Blues
TTITLE11=A Ghost Of A Chance
TTITLE12=Faithful Forever
TTITLE13=That Lucky Fellow
TTITLE14=Bluebirds In The Moonlight
TTITLE15=It Had To Be You
TTITLE16=When Day Is Done
TTITLE17=Rockin Chair
EXTD=
EXTT0=
EXTT1=
EXTT2=
EXTT3=
EXTT4=
EXTT5=
EXTT6=
EXTT7=
EXTT8=
EXTT9=
EXTT10=
EXTT11=
EXTT12=
EXTT13=
EXTT14=
EXTT15=
EXTT16=
EXTT17=
PLAYORDER=
